<svg width="228" height="76" viewBox="0 0 228 76" fill="none" xmlns="http://www.w3.org/2000/svg">
<rect x="0.95" y="0.95" width="226.1" height="74.1" rx="10.45" fill="#1A1C1E"/>
<rect x="0.95" y="0.95" width="226.1" height="74.1" rx="10.45" stroke="#F7F7F7" stroke-width="1.9"/>
<path d="M46.9385 39.4502C46.9616 37.7023 47.4371 35.9886 48.3208 34.4684C49.2046 32.9482 50.4678 31.671 51.9931 30.7555C51.0241 29.4045 49.7459 28.2927 48.2599 27.5084C46.7738 26.7241 45.1209 26.2888 43.4325 26.2373C39.8307 25.8682 36.3389 28.3414 34.5035 28.3414C32.6326 28.3414 29.8067 26.2739 26.7637 26.335C24.7953 26.3971 22.8771 26.9559 21.1957 27.957C19.5144 28.9581 18.1274 30.3673 17.1697 32.0473C13.0216 39.0591 16.1158 49.364 20.0894 55.0318C22.0775 57.8072 24.401 60.9073 27.4413 60.7974C30.4164 60.6769 31.5275 58.9452 35.1187 58.9452C38.6765 58.9452 39.719 60.7974 42.821 60.7275C46.0134 60.6769 48.0247 57.9398 49.9431 55.1381C51.3716 53.1606 52.4707 50.975 53.2 48.6623C51.3452 47.8964 49.7625 46.6145 48.649 44.9763C47.5356 43.3381 46.9407 41.4162 46.9385 39.4502Z" fill="white"/>
<path d="M41.0794 22.5097C42.8201 20.4697 43.6776 17.8476 43.47 15.2002C40.8107 15.4729 38.3542 16.7137 36.5901 18.6755C35.7275 19.6339 35.0669 20.7488 34.646 21.9566C34.2251 23.1644 34.0521 24.4413 34.137 25.7144C35.4671 25.7278 36.783 25.4463 37.9855 24.8912C39.1881 24.3361 40.2459 23.5218 41.0794 22.5097Z" fill="white"/>
<path d="M69.0011 14.8804H73.7103C74.8681 14.8804 75.8812 15.1531 76.7495 15.6986C78.1522 16.5893 78.8536 17.9864 78.8536 19.8901C78.8536 21.3597 78.3805 22.5564 77.4342 23.4805C76.4545 24.4268 75.2021 24.8999 73.6769 24.8999H69.0011V24.4657H70.337V15.3146H69.0011V14.8804ZM73.6769 15.3146H71.9401V24.4657H73.7103C75.9368 24.4546 77.0557 22.9071 77.0668 19.8233C77.0668 18.9884 76.9833 18.2647 76.8163 17.6524C76.3821 16.0938 75.3356 15.3146 73.6769 15.3146ZM81.9263 21.3263C81.9374 23.5194 82.6388 24.6271 84.0304 24.6494C85.3774 24.6383 86.0565 23.5083 86.0677 21.2595C86.0565 19.122 85.3663 18.0421 83.997 18.0198C82.6276 18.031 81.9374 19.1331 81.9263 21.3263ZM84.0471 17.6023C84.8375 17.6023 85.5444 17.8139 86.1679 18.2369C87.1698 18.9271 87.6708 19.9514 87.6708 21.3096C87.6708 22.3338 87.3479 23.1966 86.7022 23.8979C85.9897 24.6772 85.0824 25.0669 83.9803 25.0669C83.1787 25.0669 82.4551 24.8331 81.8094 24.3655C80.8297 23.653 80.3398 22.6177 80.3398 21.2595C80.3398 20.2687 80.6516 19.4337 81.275 18.7546C81.9986 17.9864 82.9227 17.6023 84.0471 17.6023ZM91.8122 18.2035H90.6099L92.6472 23.8479L93.9664 19.8233L93.2483 17.786H95.9369V18.2035H94.8014L96.7051 23.7811L98.5086 18.2035H97.3563V17.786H99.8111C99.8111 17.8417 99.8056 17.8918 99.7944 17.9363C99.7722 18.1145 99.6386 18.2035 99.3937 18.2035C99.338 18.2035 99.2823 18.2091 99.2267 18.2202C99.0597 18.2536 98.9205 18.4429 98.8092 18.788L96.7719 24.9834H96.4546C96.2542 24.9834 96.0983 24.9556 95.987 24.8999C95.7755 24.7997 95.564 24.4323 95.3524 23.7978L94.2002 20.5247L92.7307 24.9834H92.3633C92.174 24.9834 92.0237 24.9611 91.9124 24.9166C91.6675 24.8053 91.4281 24.4323 91.1943 23.7978L89.1403 18.2035H88.4056V17.786H91.8122V18.2035ZM103.585 24.4824C103.652 24.4824 103.708 24.488 103.752 24.4991C103.919 24.5214 104.003 24.655 104.003 24.8999H100.279V24.4824C100.602 24.4824 100.846 24.4602 101.013 24.4156C101.325 24.3154 101.481 24.0093 101.481 23.4972V18.2035H100.279V17.786H102.817L102.884 19.3558C102.995 19.0774 103.145 18.827 103.335 18.6043C103.88 17.9363 104.565 17.6023 105.389 17.6023C105.778 17.6023 106.146 17.697 106.491 17.8862C107.292 18.3315 107.693 19.1387 107.693 20.3076V24.4824H108.478C108.545 24.4824 108.6 24.488 108.645 24.4991C108.812 24.5214 108.896 24.655 108.896 24.8999H105.121V24.4824C105.444 24.4824 105.684 24.4546 105.84 24.3989C106.129 24.2987 106.274 23.9981 106.274 23.4972V20.1239C106.274 19.8345 106.235 19.5673 106.157 19.3224C105.934 18.6767 105.483 18.3538 104.804 18.3538C104.515 18.3538 104.225 18.4429 103.936 18.621C103.268 19.0663 102.923 19.7955 102.9 20.8086V24.4824H103.585ZM113.354 24.4824C113.41 24.4824 113.466 24.488 113.521 24.4991C113.677 24.5214 113.755 24.655 113.755 24.8999H109.764V24.4824C110.131 24.4824 110.404 24.4546 110.582 24.3989C110.883 24.2987 111.033 23.9981 111.033 23.4972V14.4629H109.764V14.0454H112.452V24.4824H113.354ZM116.41 21.3263C116.421 23.5194 117.123 24.6271 118.514 24.6494C119.861 24.6383 120.54 23.5083 120.552 21.2595C120.54 19.122 119.85 18.0421 118.481 18.0198C117.112 18.031 116.421 19.1331 116.41 21.3263ZM118.531 17.6023C119.321 17.6023 120.028 17.8139 120.652 18.2369C121.654 18.9271 122.155 19.9514 122.155 21.3096C122.155 22.3338 121.832 23.1966 121.186 23.8979C120.474 24.6772 119.566 25.0669 118.464 25.0669C117.663 25.0669 116.939 24.8331 116.293 24.3655C115.314 23.653 114.824 22.6177 114.824 21.2595C114.824 20.2687 115.135 19.4337 115.759 18.7546C116.483 17.9864 117.407 17.6023 118.531 17.6023ZM129.302 25.0669C128.5 25.0558 128.027 24.5492 127.883 23.5473C127.782 23.7922 127.632 24.0204 127.432 24.2319C126.897 24.7886 126.224 25.0669 125.411 25.0669C125.077 25.0669 124.765 25.0112 124.476 24.8999C123.708 24.5993 123.324 24.0093 123.324 23.1298C123.324 22.9851 123.335 22.8515 123.357 22.729C123.591 21.4599 125.094 20.8197 127.866 20.8086V19.7565C127.855 18.621 127.354 18.0421 126.363 18.0198C125.94 18.0198 125.623 18.1646 125.411 18.454C125.378 18.5097 125.283 18.7546 125.127 19.1888C124.994 19.545 124.776 19.7231 124.476 19.7231C124.409 19.7231 124.337 19.7176 124.259 19.7064C123.925 19.6285 123.758 19.4114 123.758 19.0552C123.758 18.8659 123.825 18.6767 123.958 18.4874C124.381 17.8974 125.238 17.6023 126.53 17.6023C128.345 17.6135 129.263 18.4651 129.285 20.1573V23.6809C129.296 24.2264 129.441 24.5103 129.719 24.5325C130.065 24.5214 130.276 24.115 130.354 23.3135L130.788 23.3302C130.777 23.5194 130.76 23.6976 130.738 23.8646C130.582 24.6661 130.104 25.0669 129.302 25.0669ZM126.029 24.3822C126.229 24.3822 126.441 24.3377 126.663 24.2486C127.276 23.9592 127.677 23.4304 127.866 22.6622V21.2762C127.087 21.2873 126.48 21.343 126.046 21.4432C125.222 21.6436 124.81 22.1167 124.81 22.8626C124.81 22.9851 124.815 23.102 124.827 23.2133C124.927 23.9926 125.328 24.3822 126.029 24.3822ZM137.217 24.8999L137.067 23.1632C136.555 24.4101 135.687 25.0446 134.462 25.0669C133.861 25.0669 133.315 24.8888 132.825 24.5325C131.946 23.8868 131.506 22.8793 131.506 21.51C131.506 20.6193 131.718 19.8233 132.141 19.122C132.775 18.1089 133.683 17.6023 134.863 17.6023C135.753 17.6023 136.477 17.8862 137.034 18.454V14.4629H135.464V14.0454H138.47L138.487 24.4824H139.321C139.388 24.4824 139.45 24.488 139.505 24.4991C139.65 24.5325 139.722 24.6661 139.722 24.8999H137.217ZM133.093 21.3096C133.093 21.8439 133.148 22.3227 133.26 22.7457C133.538 23.8367 134.106 24.3822 134.963 24.3822C135.375 24.3822 135.742 24.2486 136.065 23.9814C136.744 23.3914 137.084 22.395 137.084 20.9923C137.084 20.3688 137 19.8233 136.833 19.3558C136.51 18.4763 135.954 18.0365 135.163 18.0365C134.841 18.0365 134.551 18.1145 134.295 18.2703C133.493 18.7379 133.093 19.751 133.093 21.3096ZM145.584 21.3263C145.595 23.5194 146.296 24.6271 147.688 24.6494C149.035 24.6383 149.714 23.5083 149.725 21.2595C149.714 19.122 149.024 18.0421 147.654 18.0198C146.285 18.031 145.595 19.1331 145.584 21.3263ZM147.704 17.6023C148.495 17.6023 149.202 17.8139 149.825 18.2369C150.827 18.9271 151.328 19.9514 151.328 21.3096C151.328 22.3338 151.005 23.1966 150.36 23.8979C149.647 24.6772 148.74 25.0669 147.638 25.0669C146.836 25.0669 146.112 24.8331 145.467 24.3655C144.487 23.653 143.997 22.6177 143.997 21.2595C143.997 20.2687 144.309 19.4337 144.932 18.7546C145.656 17.9864 146.58 17.6023 147.704 17.6023ZM155.737 24.4824C155.804 24.4824 155.859 24.488 155.904 24.4991C156.071 24.5214 156.154 24.655 156.154 24.8999H152.43V24.4824C152.753 24.4824 152.998 24.4602 153.165 24.4156C153.477 24.3154 153.633 24.0093 153.633 23.4972V18.2035H152.43V17.786H154.969L155.035 19.3558C155.147 19.0774 155.297 18.827 155.486 18.6043C156.032 17.9363 156.717 17.6023 157.54 17.6023C157.93 17.6023 158.297 17.697 158.642 17.8862C159.444 18.3315 159.845 19.1387 159.845 20.3076V24.4824H160.63C160.696 24.4824 160.752 24.488 160.797 24.4991C160.964 24.5214 161.047 24.655 161.047 24.8999H157.273V24.4824C157.596 24.4824 157.835 24.4546 157.991 24.3989C158.281 24.2987 158.425 23.9981 158.425 23.4972V20.1239C158.425 19.8345 158.386 19.5673 158.308 19.3224C158.086 18.6767 157.635 18.3538 156.956 18.3538C156.666 18.3538 156.377 18.4429 156.087 18.621C155.42 19.0663 155.074 19.7955 155.052 20.8086V24.4824H155.737ZM165.005 18.2202V17.8027H166.174V16.2163L167.593 15.8656V17.8027H170.115V18.2202H167.593V23.2968C167.604 24.1317 167.905 24.5604 168.495 24.5826C169.063 24.5715 169.464 24.0705 169.697 23.0797L170.148 23.1632C170.148 23.1743 170.148 23.1854 170.148 23.1966C169.892 24.4546 169.241 25.0836 168.194 25.0836C166.925 25.0391 166.252 24.2876 166.174 22.8292V18.2202H165.005ZM174.106 24.4824C174.173 24.4824 174.228 24.488 174.273 24.4991C174.44 24.5214 174.523 24.655 174.523 24.8999H170.733V24.4824C171.067 24.4824 171.312 24.4602 171.467 24.4156C171.768 24.3154 171.918 24.0093 171.918 23.4972V14.4629H170.733V14.0454H173.354V19.3224C173.466 19.0329 173.627 18.7657 173.839 18.5208C174.395 17.9085 175.091 17.6023 175.926 17.6023C176.271 17.6023 176.594 17.6747 176.895 17.8194C177.73 18.2313 178.147 19.0607 178.147 20.3076V24.4824H178.915C178.982 24.4824 179.038 24.488 179.082 24.4991C179.249 24.5214 179.333 24.655 179.333 24.8999H175.659V24.4824C176.004 24.4824 176.249 24.449 176.394 24.3822C176.605 24.282 176.711 23.987 176.711 23.4972V20.2575C176.711 19.9235 176.667 19.6285 176.577 19.3725C176.333 18.7156 175.876 18.3872 175.208 18.3872C174.93 18.3872 174.651 18.4707 174.373 18.6377C173.694 19.0496 173.354 19.7677 173.354 20.7919V24.4824H174.106ZM183.908 18.0198C183.641 18.0198 183.391 18.0811 183.157 18.2035C182.4 18.5932 181.999 19.4448 181.955 20.7585L183.591 20.8086C184.081 20.8197 184.465 20.7919 184.743 20.7251C185.233 20.6026 185.478 20.2687 185.478 19.7231C185.478 19.4894 185.445 19.2667 185.378 19.0552C185.155 18.3649 184.665 18.0198 183.908 18.0198ZM186.864 23.2801C186.797 23.4248 186.725 23.5695 186.647 23.7143C186.079 24.616 185.172 25.0669 183.925 25.0669C183.179 25.0669 182.511 24.8832 181.921 24.5158C180.886 23.8479 180.368 22.8014 180.368 21.3764C180.368 20.5637 180.546 19.8456 180.903 19.2222C181.537 18.1423 182.528 17.6023 183.875 17.6023C184.588 17.6023 185.222 17.7526 185.779 18.0532C186.58 18.5097 186.981 19.1331 186.981 19.9235C186.981 20.3021 186.853 20.6026 186.597 20.8253C186.207 21.137 185.3 21.2817 183.875 21.2595L181.955 21.2261C181.966 21.638 181.999 22.0165 182.055 22.3616C182.322 23.8534 183.046 24.5993 184.226 24.5993C184.393 24.5993 184.565 24.5826 184.743 24.5492C185.523 24.3822 186.09 23.9091 186.447 23.1298L186.864 23.2801Z" fill="white"/>
<path d="M72.5914 58.8999H68.7339L76.5825 36.1055H80.8241L88.6561 58.8999H84.6482L82.6276 52.5876H74.6287L72.5914 58.8999ZM78.72 40.0465H78.5697L75.4804 49.6819H81.776L78.72 40.0465ZM99.3022 59.1504C97.0144 59.1504 95.2777 58.0649 94.3425 56.4451H94.209V64.7613H90.5017V41.2488H94.1088V43.8372H94.2424C95.2109 42.1506 97.0144 41.015 99.3857 41.015C103.343 41.015 106.166 44.0042 106.166 49.2812V50.8509C106.166 56.0944 103.377 59.1504 99.3022 59.1504ZM98.4506 56.0944C100.805 56.0944 102.408 54.2074 102.408 50.6505V49.4147C102.408 45.9914 100.905 44.0376 98.3838 44.0376C95.7954 44.0376 94.1756 46.1417 94.1756 49.398V50.6505C94.1756 53.9903 95.8121 56.0944 98.4506 56.0944ZM118.148 59.1504C115.86 59.1504 114.123 58.0649 113.188 56.4451H113.054V64.7613H109.347V41.2488H112.954V43.8372H113.088C114.056 42.1506 115.86 41.015 118.231 41.015C122.189 41.015 125.011 44.0042 125.011 49.2812V50.8509C125.011 56.0944 122.222 59.1504 118.148 59.1504ZM117.296 56.0944C119.651 56.0944 121.254 54.2074 121.254 50.6505V49.4147C121.254 45.9914 119.751 44.0376 117.229 44.0376C114.641 44.0376 113.021 46.1417 113.021 49.398V50.6505C113.021 53.9903 114.658 56.0944 117.296 56.0944ZM132.694 52.5709H136.401C136.568 54.5414 138.304 56.228 141.527 56.228C144.483 56.228 146.237 54.842 146.237 52.6878C146.237 50.9511 145.068 50.0159 142.63 49.4314L138.889 48.4963C135.95 47.8116 133.311 46.0582 133.311 42.351C133.311 37.9925 137.119 35.6045 141.544 35.6045C145.969 35.6045 149.66 37.9925 149.743 42.2508H146.103C145.936 40.3137 144.45 38.7105 141.494 38.7105C138.889 38.7105 137.119 39.9463 137.119 42.0671C137.119 43.5533 138.154 44.6221 140.275 45.1063L143.999 46.0248C147.422 46.8598 150.027 48.4796 150.027 52.3538C150.027 56.8292 146.404 59.3508 141.244 59.3508C134.898 59.3508 132.777 55.6436 132.694 52.5709ZM154.545 41.2488V36.9571H158.185V41.2488H161.625V44.2213H158.185V53.6396C158.185 55.5601 158.903 56.0944 160.891 56.0944C161.208 56.0944 161.508 56.0944 161.726 56.061V58.8999C161.425 58.95 160.724 59.0168 159.972 59.0168C155.68 59.0168 154.495 57.4805 154.495 53.9402V44.2213H152.057V41.2488H154.545ZM171.637 40.9482C176.713 40.9482 179.469 44.5219 179.469 49.3312V50.7507C179.469 55.7271 176.73 59.2005 171.637 59.2005C166.544 59.2005 163.772 55.7271 163.772 50.7507V49.3312C163.772 44.5386 166.56 40.9482 171.637 40.9482ZM171.637 43.9207C168.882 43.9207 167.512 46.1751 167.512 49.3813V50.734C167.512 53.8901 168.865 56.2113 171.637 56.2113C174.409 56.2113 175.745 53.9068 175.745 50.734V49.3813C175.745 46.1584 174.392 43.9207 171.637 43.9207ZM182.6 58.8999V41.2488H186.308V43.57H186.441C186.892 42.4679 188.211 40.9983 190.666 40.9983C191.15 40.9983 191.568 41.0317 191.919 41.0985V44.3716C191.601 44.2881 190.95 44.238 190.332 44.238C187.36 44.238 186.358 46.0749 186.358 48.4462V58.8999H182.6ZM200.911 59.2005C196.186 59.2005 193.18 56.0777 193.18 50.8509V49.0641C193.18 44.1378 196.119 40.9482 200.761 40.9482C205.47 40.9482 208.309 44.2547 208.309 49.2311V50.9177H196.837V51.3352C196.837 54.3076 198.44 56.2781 200.962 56.2781C202.849 56.2781 204.134 55.343 204.585 53.8233H208.109C207.574 56.6789 205.27 59.2005 200.911 59.2005ZM196.837 48.3293H204.685V48.2959C204.685 45.791 203.132 43.8205 200.778 43.8205C198.39 43.8205 196.837 45.791 196.837 48.2959V48.3293Z" fill="white"/>
</svg>
