<svg width="228" height="76" viewBox="0 0 228 76" fill="none" xmlns="http://www.w3.org/2000/svg">
<rect x="0.95" y="0.95" width="226.1" height="74.1" rx="10.45" fill="#1A1C1E"/>
<rect x="0.95" y="0.95" width="226.1" height="74.1" rx="10.45" stroke="#F7F7F7" stroke-width="1.9"/>
<path d="M33.829 36.9775L15.3701 57.0115C15.3719 57.0151 15.3719 57.0204 15.3736 57.024C15.9405 59.1993 17.8823 60.8003 20.1881 60.8003C21.1105 60.8003 21.9756 60.545 22.7176 60.0982L22.7766 60.0628L43.5535 47.803L33.829 36.9775Z" fill="#EA4335"/>
<path d="M52.5029 33.566L52.4855 33.5535L43.5153 28.2365L33.4094 37.4327L43.5517 47.8008L52.4734 42.537C54.0372 41.6718 55.1 39.9857 55.1 38.0426C55.1 36.1101 54.0528 34.4329 52.5029 33.566Z" fill="#FBBC04"/>
<path d="M15.3699 18.9873C15.2589 19.4057 15.2 19.8454 15.2 20.2992V55.701C15.2 56.1549 15.2589 56.5946 15.3716 57.0112L34.4633 37.4895L15.3699 18.9873Z" fill="#4285F4"/>
<path d="M33.9655 38L43.5183 28.2329L22.7657 15.9288C22.0115 15.4661 21.1308 15.2002 20.1894 15.2002C17.8835 15.2002 15.9383 16.8047 15.3714 18.9818C15.3714 18.9836 15.3696 18.9854 15.3696 18.9871L33.9655 38Z" fill="#27A33C"/>
<path d="M82.8589 21.249C82.8589 23.149 82.2952 24.6627 81.1679 25.79C79.9012 27.1327 78.2356 27.804 76.1709 27.804C74.1949 27.804 72.5229 27.12 71.1549 25.752C69.7869 24.384 69.1029 22.6993 69.1029 20.698C69.1029 18.6967 69.7869 17.012 71.1549 15.644C72.5229 14.276 74.1949 13.592 76.1709 13.592C77.1716 13.592 78.1152 13.7693 79.0019 14.124C79.8886 14.4787 80.6169 14.979 81.1869 15.625L79.9329 16.879C79.5149 16.3723 78.9702 15.9797 78.2989 15.701C77.6402 15.4097 76.9309 15.264 76.1709 15.264C74.6889 15.264 73.4349 15.777 72.4089 16.803C71.3956 17.8417 70.8889 19.14 70.8889 20.698C70.8889 22.256 71.3956 23.5543 72.4089 24.593C73.4349 25.619 74.6889 26.132 76.1709 26.132C77.5262 26.132 78.6536 25.752 79.5529 24.992C80.4522 24.232 80.9716 23.187 81.1109 21.857H76.1709V20.223H82.7639C82.8272 20.5777 82.8589 20.9197 82.8589 21.249ZM92.9247 13.896V15.568H86.7307V19.881H92.3167V21.515H86.7307V25.828H92.9247V27.5H84.9827V13.896H92.9247ZM99.9166 15.568V27.5H98.1686V15.568H94.3686V13.896H103.717V15.568H99.9166ZM111.464 27.5H109.716V13.896H111.464V27.5ZM118.842 15.568V27.5H117.094V15.568H113.294V13.896H122.642V15.568H118.842ZM141.59 20.698C141.59 22.712 140.918 24.3967 139.576 25.752C138.22 27.12 136.561 27.804 134.598 27.804C132.622 27.804 130.962 27.12 129.62 25.752C128.277 24.3967 127.606 22.712 127.606 20.698C127.606 18.684 128.277 16.9993 129.62 15.644C130.962 14.276 132.622 13.592 134.598 13.592C136.574 13.592 138.233 14.2823 139.576 15.663C140.918 17.0183 141.59 18.6967 141.59 20.698ZM129.392 20.698C129.392 22.2687 129.886 23.567 130.874 24.593C131.874 25.619 133.116 26.132 134.598 26.132C136.08 26.132 137.315 25.619 138.303 24.593C139.303 23.5797 139.804 22.2813 139.804 20.698C139.804 19.1147 139.303 17.8163 138.303 16.803C137.315 15.777 136.08 15.264 134.598 15.264C133.116 15.264 131.874 15.777 130.874 16.803C129.886 17.829 129.392 19.1273 129.392 20.698ZM145.401 27.5H143.653V13.896H145.781L152.393 24.479H152.469L152.393 21.857V13.896H154.141V27.5H152.317L145.401 16.404H145.325L145.401 19.026V27.5Z" fill="white"/>
<path d="M177.684 59.6783H180.779V38.7565H177.684V59.6783ZM205.559 46.2928L202.011 55.3638H201.905L198.223 46.2928H194.889L200.411 58.9704L197.264 66.023H200.49L209 46.2928H205.559ZM188.008 57.3018C186.993 57.3018 185.58 56.7914 185.58 55.5244C185.58 53.9111 187.34 53.2918 188.861 53.2918C190.221 53.2918 190.863 53.5881 191.689 53.9914C191.448 55.9294 189.795 57.3018 188.008 57.3018ZM188.382 45.8359C186.141 45.8359 183.819 46.8317 182.86 49.0392L185.607 50.1956C186.194 49.0392 187.287 48.6609 188.435 48.6609C190.035 48.6609 191.662 49.63 191.689 51.3538V51.568C191.128 51.245 189.929 50.7613 188.461 50.7613C185.501 50.7613 182.486 52.4031 182.486 55.4709C182.486 58.2708 184.914 60.075 187.634 60.075C189.715 60.075 190.863 59.1327 191.582 58.0282H191.689V59.6432H194.676V51.6216C194.676 47.9078 191.929 45.8359 188.382 45.8359ZM169.256 48.84H164.854V41.6686H169.256C171.569 41.6686 172.883 43.6016 172.883 45.2534C172.883 46.8752 171.569 48.84 169.256 48.84ZM169.176 38.7565H161.761V59.6783H164.854V51.7521H169.176C172.606 51.7521 175.978 49.245 175.978 45.2534C175.978 41.2619 172.606 38.7565 169.176 38.7565ZM128.741 57.3052C126.603 57.3052 124.813 55.4993 124.813 53.019C124.813 50.5119 126.603 48.6777 128.741 48.6777C130.852 48.6777 132.507 50.5119 132.507 53.019C132.507 55.4993 130.852 57.3052 128.741 57.3052ZM132.295 47.4643H132.187C131.492 46.6292 130.157 45.8744 128.474 45.8744C124.946 45.8744 121.714 49.0007 121.714 53.019C121.714 57.0089 124.946 60.1101 128.474 60.1101C130.157 60.1101 131.492 59.3553 132.187 58.4917H132.295V59.5177C132.295 62.2406 130.852 63.6967 128.527 63.6967C126.629 63.6967 125.454 62.321 124.973 61.1612L122.274 62.2942C123.049 64.182 125.107 66.5 128.527 66.5C132.16 66.5 135.234 64.3427 135.234 59.0859V46.3045H132.295V47.4643ZM137.371 59.6783H140.471V38.7548H137.371V59.6783ZM145.039 52.7764C144.959 50.0266 147.15 48.6241 148.725 48.6241C149.956 48.6241 150.998 49.2433 151.344 50.1337L145.039 52.7764ZM154.658 50.4032C154.071 48.8132 152.28 45.8744 148.619 45.8744C144.986 45.8744 141.967 48.758 141.967 52.9922C141.967 56.9821 144.959 60.1101 148.966 60.1101C152.2 60.1101 154.071 58.1152 154.845 56.9554L152.44 55.337C151.639 56.5236 150.543 57.3052 148.966 57.3052C147.39 57.3052 146.268 56.5771 145.546 55.1495L154.978 51.2115L154.658 50.4032ZM79.5151 48.0584V51.0776H86.6748C86.4608 52.7764 85.9003 54.0165 85.0461 54.8784C84.003 55.9311 82.3727 57.0909 79.5151 57.0909C75.1052 57.0909 71.6588 53.5044 71.6588 49.0559C71.6588 44.6058 75.1052 41.0209 79.5151 41.0209C81.8934 41.0209 83.6298 41.9648 84.9118 43.1782L87.0231 41.0477C85.2319 39.3222 82.8553 38 79.5151 38C73.4765 38 68.3999 42.9623 68.3999 49.0559C68.3999 55.1495 73.4765 60.1101 79.5151 60.1101C82.774 60.1101 85.2319 59.0307 87.1558 57.0089C89.1343 55.014 89.748 52.2107 89.748 49.9446C89.748 49.2433 89.6949 48.5973 89.5871 48.0584H79.5151ZM97.8895 57.3052C95.7517 57.3052 93.9074 55.5261 93.9074 52.9922C93.9074 50.4299 95.7517 48.6777 97.8895 48.6777C100.026 48.6777 101.87 50.4299 101.87 52.9922C101.87 55.5261 100.026 57.3052 97.8895 57.3052ZM97.8895 45.8744C93.9871 45.8744 90.8077 48.8668 90.8077 52.9922C90.8077 57.0909 93.9871 60.1101 97.8895 60.1101C101.79 60.1101 104.97 57.0909 104.97 52.9922C104.97 48.8668 101.79 45.8744 97.8895 45.8744ZM113.335 57.3052C111.197 57.3052 109.353 55.5261 109.353 52.9922C109.353 50.4299 111.197 48.6777 113.335 48.6777C115.473 48.6777 117.315 50.4299 117.315 52.9922C117.315 55.5261 115.473 57.3052 113.335 57.3052ZM113.335 45.8744C109.434 45.8744 106.255 48.8668 106.255 52.9922C106.255 57.0909 109.434 60.1101 113.335 60.1101C117.236 60.1101 120.415 57.0909 120.415 52.9922C120.415 48.8668 117.236 45.8744 113.335 45.8744Z" fill="white"/>
</svg>
