<svg width="35" height="35" viewBox="0 0 35 35" fill="none" xmlns="http://www.w3.org/2000/svg">
<path fill-rule="evenodd" clip-rule="evenodd" d="M7.8431 13.6397C6.27946 16.2132 5.49764 15.4411 2.89157 16.7279C1.60697 17.5893 -0.235716 19.3014 0.024891 21.6176C0.546105 21.3602 1.11275 21.1047 1.60701 20.8928C3.48201 20.0893 5.78806 19.7421 6.96415 20C8.14024 20.2579 9.35088 20.6942 9.66735 20.8455C9.98383 20.9969 10.4492 21.3602 10.9704 21.6176C11.2499 21.4286 11.4916 21.3602 12.2734 21.1029C19.5704 19.0441 29.7341 13.4821 33.122 6.43381C33.7148 5.20053 34.6856 2.05882 33.9038 0V0.514705C33.6432 1.54411 33.3826 2.31617 32.8614 3.34558C32.6008 4.11764 31.0982 6.43383 30.8927 6.69642C30.6872 6.95902 30.548 7.07984 30.357 7.32142C30.166 7.56301 29.9947 7.72057 29.7341 7.97792C27.9099 9.77939 25.3038 11.3235 22.9583 12.6103C20.8735 13.6397 9.66735 18.7867 8.10371 16.2132C7.8431 15.4411 7.8431 13.897 7.8431 13.6397Z" fill="#1A1C1E"/>
<path fill-rule="evenodd" clip-rule="evenodd" d="M33.1946 7.66221C33.1946 8.19244 32.934 9.2529 32.6735 9.78313C32.1523 11.3738 31.11 12.6994 29.8072 14.025C24.3352 20.1226 19.3844 21.4482 12.6096 23.8342C17.5604 29.1365 24.8564 35.4993 32.6735 34.969C28.2438 32.8481 24.3352 30.7272 19.645 25.69C25.6381 23.0389 32.934 17.2063 33.4552 10.3134C33.4552 9.2529 33.4552 8.45756 33.1946 7.66221C33.1946 7.3971 33.1946 7.3971 33.1946 7.66221Z" fill="#D71921"/>
</svg>
