<svg width="1440" height="714" viewBox="0 0 1440 714" fill="none" xmlns="http://www.w3.org/2000/svg">
<path d="M706 -122C1030.05 -122 1323.2 -74.9867 1535.17 0.869141C1641.17 38.8048 1726.6 83.86 1785.43 133.64C1844.29 183.438 1876 237.479 1876 293.5C1876 349.521 1844.29 403.562 1785.43 453.36C1726.6 503.14 1641.17 548.195 1535.17 586.131C1323.2 661.987 1030.05 709 706 709C381.952 709 88.7975 661.987 -123.166 586.131C-229.169 548.195 -314.599 503.14 -373.433 453.36C-432.289 403.562 -464 349.521 -464 293.5C-464 237.479 -432.289 183.438 -373.433 133.64C-314.599 83.86 -229.169 38.8048 -123.166 0.869141C88.7975 -74.9867 381.952 -122 706 -122Z" fill="white" stroke="#1A1C1E" stroke-width="10"/>
<path d="M1065.65 76.821C1057.13 85.9701 1045.82 86.3753 1039.87 78.0987C1038.16 76.5089 1037.02 73.8144 1034.64 70.5035C1031.66 66.3649 1031.67 56.8124 1031.16 52.2318C1030.64 47.6512 1028.18 48.0925 1024.3 48.5851C1020.43 49.0778 1022.49 57.141 1024.34 59.5509C1026.2 61.9609 1030 60.2897 1030.44 61.809C1031.25 64.6102 1027.16 69.0021 1022.6 70.2273C1017.77 71.5258 1004.47 67.6925 1000.24 58.2927C997.542 52.2953 996.263 36.147 1005.04 24.5114C1013.83 12.8757 1037.26 5.31413 1051.68 3.02835C1066.1 0.742569 1080.74 14.3691 1083.7 17.8011C1086.65 21.2331 1087.23 37.4861 1077.96 45.2479C1068.68 53.0096 1064.81 44.5746 1059.17 44.1516C1055.98 43.9122 1057.18 41.157 1059.36 39.5457C1060.85 38.4308 1063.7 36.2069 1063.03 33.4006C1062.36 30.5942 1058.91 30.4819 1057.27 30.7765C1055.2 32.0302 1050.94 35.6734 1050.54 40.2162C1050.13 44.7591 1057.83 46.3235 1061.42 47.6096C1065 48.8956 1069.02 52.6442 1071.66 57.1482C1074.3 61.6521 1073.82 68.0367 1065.65 76.821Z" fill="#F7F7F7"/>
<path d="M322.178 464.488C307.396 464.488 297.935 455.303 300.299 443.821C300.299 441.142 301.717 438.081 302.664 433.488C303.846 427.747 312.125 420.284 315.673 416.265C319.22 412.247 316.856 410.525 313.308 407.654C309.76 404.784 304.439 412.821 303.847 416.265C303.256 419.71 307.766 421.598 306.804 423.154C305.03 426.025 297.934 426.025 293.202 423.154C288.188 420.112 280.786 405.932 285.515 395.024C288.533 388.065 301.481 374.357 318.629 372.635C335.777 370.913 361.204 384.691 374.805 395.024C388.405 405.358 388.405 428.321 387.814 433.488C387.222 438.655 373.622 451.859 359.43 450.136C345.239 448.414 349.419 438.56 345.24 433.488C342.874 430.617 346.225 429.469 349.379 430.043C351.547 430.426 355.764 431.077 357.656 428.321C359.548 425.566 356.868 422.58 355.291 421.432C352.531 420.667 345.948 419.94 341.691 423.154C337.433 426.369 342.281 434.062 344.056 438.08C345.831 442.099 345.829 448.414 344.056 454.155C342.283 459.896 336.371 464.488 322.178 464.488Z" fill="#F7F7F7"/>
<path d="M109.021 237.466C64.5332 209.386 77.8485 162.324 90.0673 142.303C93.307 138.495 95.9973 135.491 104.553 129.288C113.802 122.584 123.986 119.256 128.811 118.678L120.027 104.772L129.718 100.018L137.589 116.693C138.657 112.35 142.663 101.499 150.137 92.8374C157.611 84.1758 175.6 80.7577 183.66 80.1313C184.022 80.2203 184.092 82.4942 181.476 90.8775C178.861 99.2607 170.248 109.991 166.269 114.308C180.021 117.692 209.517 129.648 217.49 150.4C227.457 176.341 220.668 202.995 216.737 210.548C212.806 218.101 164.632 272.566 109.021 237.466Z" fill="#F7F7F7"/>
<path d="M754.857 139.139L752.796 165.162C749.809 165.147 743.291 165.188 741.115 165.474C738.394 165.831 730.003 162.701 721.185 165.282C712.368 167.863 707.766 174.325 701.256 186.367C694.745 198.409 701.211 210.701 701.138 213.233C701.065 215.765 709.303 225.75 712.231 227.278C715.16 228.806 716.172 237.705 716.38 239.589C716.588 241.474 712.894 245.254 712.052 247.195L708.868 254.529C709.561 253.72 711.397 251.423 713.188 248.714C714.98 246.006 715.61 246.091 715.701 246.473L711.732 256.798C709.746 260.978 705.197 269.958 702.888 272.442C700.578 274.925 697.992 282.536 696.988 286.031C697.987 283.73 700.42 278.599 702.159 276.483C703.899 274.368 705.716 273.413 706.407 273.2C706.255 274.929 706.006 278.615 706.225 279.53C706.498 280.674 704.401 286.686 703.465 288.843C702.528 291 699.454 294.536 697.532 296.008C695.994 297.187 692.646 306.278 691.164 310.676C692.597 307.966 695.632 302.157 696.307 300.604C697.149 298.662 703.218 295.913 704.679 293.728C706.141 291.543 708.36 285.841 709.133 278.742C709.751 273.063 713.138 262.621 714.754 258.11C714.653 260.117 714.713 264.706 715.766 267.009C715.781 263.427 717.202 256.609 720.198 249.707C723.195 242.804 730.155 240.955 733.833 240.757C737.511 240.56 760.861 235.828 764.64 233.623C768.42 231.418 776.275 222.78 781.282 208.291C786.29 193.801 768.582 180.218 766.431 177.49C764.28 174.761 758.927 169.361 757.949 166.886C757.166 164.905 769.427 151.873 775.655 145.604C775.342 146.323 775.38 147.536 778.029 146.635C780.498 147.45 785.984 143.679 787.575 140.012C789.167 136.345 790.663 140.584 794.484 143.011C798.305 145.439 804.703 144.884 807.338 142.952C809.973 141.02 807.45 131.465 808.48 129.092C809.51 126.72 817.979 133.216 821.858 136.694C825.736 140.172 826.969 133.786 827.445 130.916C827.921 128.047 830.116 127.718 835.513 130.061C840.91 132.404 845.244 130.696 846.461 127.892C847.679 125.088 844.407 117.258 841.148 113.536C837.888 109.814 824.8 99.7743 821.684 98.6779C818.568 97.5815 817.86 103.94 818.5 106.012C819.14 108.084 812.505 106.229 811.808 103.106C811.111 99.9836 816.999 95.8751 817.52 89.9488C818.04 84.0224 803.505 72.5852 797.468 68.1699C791.431 63.7546 773.783 64.8091 771.536 69.9859C769.288 75.1628 776.956 88.2331 777.099 90.8587C777.242 93.4844 770.146 90.9166 767.613 90.8422C765.079 90.7679 764.941 97.1167 768.372 100.913C771.803 104.71 772.435 111.65 772.211 113.347C771.988 115.044 765.157 115.412 762.473 114.503C759.789 113.594 761.295 108.351 763.542 103.175C765.789 97.9976 765.181 88.761 764.793 85.5166C764.406 82.2721 757.974 76.4033 754.923 74.5661C751.872 72.7288 741.355 75.0851 737.116 76.5771C732.876 78.0692 726.495 88.6297 726.235 91.593C725.975 94.5563 730.938 104.401 735.378 106.585C739.818 108.769 744.429 114.104 744.385 117.161C744.341 120.218 741.849 124.776 741.531 126.689C741.214 128.602 748.591 130.523 750.432 133.373C751.905 135.653 753.996 138.167 754.857 139.139Z" fill="#F7F7F7"/>
<path d="M481.324 526.924L504.774 538.392C503.664 541.165 501.31 547.243 500.777 549.372C500.111 552.034 494.119 558.691 493.284 567.84C492.448 576.99 496.77 583.642 505.582 594.118C514.394 604.594 528.202 603.091 530.53 604.088C532.859 605.085 545.17 601.088 547.666 598.924C550.162 596.761 558.812 599.086 560.641 599.584C562.471 600.082 564.631 604.906 566.128 606.402L571.781 612.055C571.283 611.113 569.82 608.563 567.958 605.902C566.096 603.241 566.407 602.687 566.795 602.742L574.943 610.224C578.102 613.605 584.786 621.133 586.248 624.193C587.711 627.253 593.841 632.452 596.724 634.668C594.95 632.895 591.071 628.749 589.741 626.354C588.411 623.959 588.19 621.919 588.246 621.198C589.798 621.973 593.136 623.558 594.067 623.69C595.231 623.856 600.054 628.013 601.717 629.676C603.379 631.338 605.54 635.496 606.204 637.825C606.736 639.688 613.964 646.139 617.511 649.132C615.516 646.804 611.226 641.848 610.029 640.651C608.533 639.155 608.203 632.501 606.707 630.339C605.21 628.177 600.721 624.02 594.401 620.696C589.345 618.037 580.875 611.054 577.273 607.894C579.102 608.725 583.393 610.354 585.922 610.22C582.595 608.89 576.775 605.067 571.454 599.746C566.133 594.425 566.968 587.272 568.134 583.778C569.3 580.284 573.468 556.827 572.805 552.502C572.141 548.177 566.989 537.7 555.349 527.724C543.709 517.748 524.574 529.234 521.246 530.233C517.919 531.233 510.931 534.23 508.269 534.231C506.14 534.232 498.517 518.044 494.972 509.95C495.526 510.504 496.668 510.914 496.802 508.12C498.467 506.123 496.972 499.636 494.146 496.809C491.319 493.982 495.81 494.147 499.471 491.484C503.132 488.82 504.964 482.665 504.134 479.504C503.304 476.344 493.489 475.184 491.661 473.355C489.832 471.526 498.983 466.033 503.642 463.701C508.3 461.37 502.812 457.88 500.318 456.384C497.824 454.888 498.323 452.725 502.484 448.564C506.644 444.404 506.646 439.746 504.485 437.584C502.323 435.423 493.839 435.593 489.181 437.258C484.522 438.924 470.379 447.414 468.215 449.91C466.052 452.406 471.706 455.398 473.869 455.563C476.031 455.729 471.87 461.22 468.71 460.722C465.549 460.224 463.889 453.239 458.567 450.579C453.245 447.92 437.271 457.242 430.949 461.238C424.626 465.233 419.129 482.036 423.12 486.027C427.11 490.018 442.083 487.682 444.577 488.513C447.072 489.344 442.079 495.002 441.08 497.331C440.081 499.66 445.936 502.119 450.727 500.321C455.518 498.523 462.205 500.482 463.702 501.314C465.199 502.145 463.034 508.633 461.203 510.797C459.372 512.96 455.048 509.635 451.058 505.644C447.067 501.653 438.252 498.829 435.092 497.999C431.931 497.168 424.111 500.998 421.282 503.162C418.453 505.325 416.785 515.972 416.617 520.464C416.449 524.955 423.93 534.767 426.591 536.096C429.252 537.426 440.232 536.423 443.893 533.095C447.554 529.766 454.209 527.434 457.036 528.598C459.864 529.761 463.189 533.752 464.852 534.749C466.515 535.747 471.009 529.59 474.337 528.923C476.998 528.389 480.104 527.368 481.324 526.924Z" fill="#F7F7F7"/>
</svg>
